<svg id="Ebene_1" data-name="Ebene 1" xmlns="http://www.w3.org/2000/svg" viewBox="0 0 446.3 108.8"><defs><style>.cls-1{fill:#f1782b;}</style></defs><path class="cls-1" d="M104.5,75.2a53.66,53.66,0,0,0,4.2-20.8,50.7,50.7,0,0,0-.4-6.8l-2.2,1.2a22.91,22.91,0,0,1-28.4-4.4L59.4,55,59,51.4l-3.4.1,1.1-4.8-2.3-.2L72.8,35.9h0A23,23,0,0,1,83.2,9.1l.6-.4A54.31,54.31,0,0,0,0,54.4,53.64,53.64,0,0,0,8.8,84l1.1-1.9A23,23,0,0,1,36.7,71.7l9.9-17.1h2.8l.9,3.7,3.8-1.2,1.1,2.5L45.3,76.8a22.93,22.93,0,0,1,4.4,28.4l-1.9,3.2a48.72,48.72,0,0,0,6.6.4A54.19,54.19,0,0,0,92.8,92.9c1.1-1.1,2.2-2.3,3.2-3.5,6.3,1.9,15.5,2.9,27.4-.5C113.9,85.5,108.1,80.4,104.5,75.2ZM40.1,49.5A2.37,2.37,0,0,1,37.8,51a1.49,1.49,0,0,1-.9-.2L25.3,46.1a2.61,2.61,0,0,1-1.4-3.2,2.43,2.43,0,0,1,3.2-1.4l11.6,4.8A2.47,2.47,0,0,1,40.1,49.5Zm4.4-5a2.34,2.34,0,0,1-1.7.7,2.19,2.19,0,0,1-1.7-.7L24.5,27.9A2.47,2.47,0,0,1,28,24.4L44.6,41A2.51,2.51,0,0,1,44.5,44.5ZM48.8,40a2.92,2.92,0,0,1-.9.2,2.47,2.47,0,0,1-2.3-1.6L40.9,27a2.43,2.43,0,0,1,1.4-3.2,2.51,2.51,0,0,1,3.2,1.3l4.7,11.6A2.51,2.51,0,0,1,48.8,40Z"/><path class="cls-1" d="M41.1,100.2l-3.4,6A54.52,54.52,0,0,1,16,92.9l-.5-.5,3-5.2a13.1,13.1,0,0,1,13.1-6.4l-2.3,4.1a4.8,4.8,0,0,0,1.8,6.7,4.9,4.9,0,0,0,6.7-1.8l2.4-4.1A13.32,13.32,0,0,1,41.1,100.2Z"/><path class="cls-1" d="M106,37.5l-4.8,2.8a13.34,13.34,0,0,1-14.6-1l2.6-1.5a4.91,4.91,0,0,0-4.9-8.5l-2.6,1.5a13.1,13.1,0,0,1,6.4-13.1l4-2.3a4.62,4.62,0,0,1,.7.7A53.64,53.64,0,0,1,106,37.5Z"/><path class="cls-1" d="M134.9,64.1a1.06,1.06,0,0,1-1.2-1.2v-32a1.06,1.06,0,0,1,1.2-1.2h22a1.06,1.06,0,0,1,1.2,1.2v4.2a1.06,1.06,0,0,1-1.2,1.2H141.4v8.3h14.5a1.06,1.06,0,0,1,1.2,1.2V50a1.14,1.14,0,0,1-.3.8,1.22,1.22,0,0,1-.9.3H141.4V62.8a1.06,1.06,0,0,1-1.2,1.2h-5.3Z"/><path class="cls-1" d="M162.9,64.1a1.06,1.06,0,0,1-1.2-1.2v-32a1.06,1.06,0,0,1,1.2-1.2h13c4.1,0,7.3.9,9.7,2.8s3.5,4.6,3.5,8.1a9.74,9.74,0,0,1-6.3,9.6l6.9,12.3a1.09,1.09,0,0,1,.1.5,1,1,0,0,1-1,1h-5.5a1.73,1.73,0,0,1-1.3-.5,2.36,2.36,0,0,1-.6-.9l-6-11.3h-6V62.7a1.06,1.06,0,0,1-1.2,1.2h-5.3Zm6.6-18.9h6.3a5.8,5.8,0,0,0,4-1.2,4.38,4.38,0,0,0,1.3-3.4,4.6,4.6,0,0,0-1.3-3.5,5.36,5.36,0,0,0-4-1.3h-6.3Z"/><path class="cls-1" d="M194.5,64.1a1.06,1.06,0,0,1-1.2-1.2v-32a1.06,1.06,0,0,1,1.2-1.2h22.3a1.06,1.06,0,0,1,1.2,1.2v3.9a1.14,1.14,0,0,1-.3.8,1.22,1.22,0,0,1-.9.3H200.9v7.7h14.8a1.06,1.06,0,0,1,1.2,1.2v3.6a1.14,1.14,0,0,1-.3.8,1.22,1.22,0,0,1-.9.3H200.8v8h16.3a1.06,1.06,0,0,1,1.2,1.2v3.9a1.06,1.06,0,0,1-1.2,1.2H194.5Z"/><path class="cls-1" d="M222.5,64.1a1.06,1.06,0,0,1-1.2-1.2v-32a1.06,1.06,0,0,1,1.2-1.2h22.3a1.06,1.06,0,0,1,1.2,1.2v3.9a1.14,1.14,0,0,1-.3.8,1.22,1.22,0,0,1-.9.3H228.9v7.7h14.8a1.06,1.06,0,0,1,1.2,1.2v3.6a1.14,1.14,0,0,1-.3.8,1.22,1.22,0,0,1-.9.3H228.8v8h16.3a1.06,1.06,0,0,1,1.2,1.2v3.9a1.06,1.06,0,0,1-1.2,1.2H222.5Z"/><path class="cls-1" d="M134.7,104.4a1,1,0,0,1-.9-.4,1.22,1.22,0,0,1-.3-.9v-32a1.06,1.06,0,0,1,1.2-1.2h12.8a18.46,18.46,0,0,1,8.2,1.6,11,11,0,0,1,5.2,4.5,15,15,0,0,1,2,7.4v7.5a16.67,16.67,0,0,1-1.9,7.6,11.19,11.19,0,0,1-5.1,4.5,19.53,19.53,0,0,1-8.1,1.5H134.7Zm7.6-7.1h5.2a7.28,7.28,0,0,0,3.5-.7,4.29,4.29,0,0,0,2.1-2.1,9.65,9.65,0,0,0,.8-3.7,24.4,24.4,0,0,0,.1-2.6V85.9c0-.8-.1-1.6-.1-2.5-.1-2.2-.6-3.9-1.7-4.9a7,7,0,0,0-4.9-1.6h-4.9V97.3Z"/><path class="cls-1" d="M167.9,104.4a1,1,0,0,1-.9-.4,1.22,1.22,0,0,1-.3-.9v-32a1.06,1.06,0,0,1,1.2-1.2h6.6a1.22,1.22,0,0,1,.9.3,1.27,1.27,0,0,1,.4.9v32a1.22,1.22,0,0,1-.4.9,1.49,1.49,0,0,1-.9.4Z"/><path class="cls-1" d="M193.5,104.9a21.56,21.56,0,0,1-8.2-1.4,11.18,11.18,0,0,1-4.9-3.7,8.89,8.89,0,0,1-1.8-4.8.91.91,0,0,1,.3-.7,1.14,1.14,0,0,1,.8-.3h6.2a3.09,3.09,0,0,1,1.1.2c.2.2.5.4.7.6a4.86,4.86,0,0,0,1.1,1.4,5,5,0,0,0,1.9,1.1,8.12,8.12,0,0,0,2.9.4,8.35,8.35,0,0,0,4.3-.9,2.71,2.71,0,0,0,1.5-2.4,2.2,2.2,0,0,0-.8-1.8,7.19,7.19,0,0,0-2.5-1.3,39.1,39.1,0,0,0-4.7-1.2,30.23,30.23,0,0,1-6.4-2,8.83,8.83,0,0,1-4-3.3,9.25,9.25,0,0,1-1.4-5.1,9.35,9.35,0,0,1,1.7-5.4,10.71,10.71,0,0,1,4.8-3.7,17.48,17.48,0,0,1,7.2-1.3,18,18,0,0,1,6,.9,14.27,14.27,0,0,1,4.4,2.4,10.93,10.93,0,0,1,2.7,3.1,8.43,8.43,0,0,1,1,3.2.91.91,0,0,1-.3.7,1,1,0,0,1-.8.3h-6.6a2,2,0,0,1-.9-.2,1.34,1.34,0,0,1-.7-.6,3.2,3.2,0,0,0-1.6-1.9,6.18,6.18,0,0,0-3.3-.8,6.57,6.57,0,0,0-3.4.8,2.56,2.56,0,0,0-1.2,2.3,2.19,2.19,0,0,0,.7,1.7,5.53,5.53,0,0,0,2.2,1.3,32.59,32.59,0,0,0,4.3,1.1,35.19,35.19,0,0,1,7.2,2.1,9.66,9.66,0,0,1,4.1,3.2,8.66,8.66,0,0,1,1.3,5,9,9,0,0,1-1.9,5.8,12.62,12.62,0,0,1-5.2,3.7A17.54,17.54,0,0,1,193.5,104.9Z"/><path class="cls-1" d="M225.5,104.9a19.69,19.69,0,0,1-8-1.5,11.44,11.44,0,0,1-5.2-4.5,14.9,14.9,0,0,1-2-7.3V82.9a13.94,13.94,0,0,1,2.1-7.3,11.44,11.44,0,0,1,5.2-4.5,19.2,19.2,0,0,1,7.9-1.5,22.33,22.33,0,0,1,6,.8,13.55,13.55,0,0,1,4.8,2.4,10.6,10.6,0,0,1,4.4,8.6.91.91,0,0,1-.3.7,1.14,1.14,0,0,1-.8.3H233a1.49,1.49,0,0,1-1-.3,2.89,2.89,0,0,1-.6-1,6.37,6.37,0,0,0-2.2-3.6,7.38,7.38,0,0,0-3.8-1,6.09,6.09,0,0,0-4.3,1.5c-1.1,1-1.6,2.7-1.7,5-.1,2.7-.1,5.4,0,8.3a7.43,7.43,0,0,0,1.7,5,6.09,6.09,0,0,0,4.3,1.5,6.53,6.53,0,0,0,3.8-1,5.63,5.63,0,0,0,2.2-3.5,1.44,1.44,0,0,1,.6-1,1.49,1.49,0,0,1,1-.3h6.6a1.33,1.33,0,0,1,.8.3.91.91,0,0,1,.3.7,9.88,9.88,0,0,1-1.2,4.9,10.36,10.36,0,0,1-3.2,3.7,18,18,0,0,1-4.8,2.4A19.81,19.81,0,0,1,225.5,104.9Z"/><path class="cls-1" d="M258.4,104.9a18.71,18.71,0,0,1-7.8-1.5,11.19,11.19,0,0,1-5.1-4.5,14.87,14.87,0,0,1-1.8-7.7V71.1a1.06,1.06,0,0,1,1.2-1.2h6.3a1.22,1.22,0,0,1,.9.3,1.27,1.27,0,0,1,.4.9v20a6.9,6.9,0,0,0,1.5,4.8,6.58,6.58,0,0,0,8.6,0,6.93,6.93,0,0,0,1.6-4.8v-20a1,1,0,0,1,.4-.9,1.22,1.22,0,0,1,.9-.3h6.4a1.61,1.61,0,0,1,.9.3,1.27,1.27,0,0,1,.4.9V91.2a14.87,14.87,0,0,1-1.8,7.7,11.19,11.19,0,0,1-5.1,4.5A19.87,19.87,0,0,1,258.4,104.9Z"/><path class="cls-1" d="M290.5,104.9a21.56,21.56,0,0,1-8.2-1.4,11.18,11.18,0,0,1-4.9-3.7,8.89,8.89,0,0,1-1.8-4.8.91.91,0,0,1,.3-.7,1.14,1.14,0,0,1,.8-.3h6.2a3.09,3.09,0,0,1,1.1.2c.2.2.5.4.7.6a4.86,4.86,0,0,0,1.1,1.4,5,5,0,0,0,1.9,1.1,8.12,8.12,0,0,0,2.9.4,8.35,8.35,0,0,0,4.3-.9,2.71,2.71,0,0,0,1.5-2.4,2.2,2.2,0,0,0-.8-1.8,7.19,7.19,0,0,0-2.5-1.3,39.1,39.1,0,0,0-4.7-1.2,30.23,30.23,0,0,1-6.4-2,8.83,8.83,0,0,1-4-3.3,9.25,9.25,0,0,1-1.4-5.1,9.35,9.35,0,0,1,1.7-5.4,10.71,10.71,0,0,1,4.8-3.7,17.48,17.48,0,0,1,7.2-1.3,18,18,0,0,1,6,.9,14.27,14.27,0,0,1,4.4,2.4,10.93,10.93,0,0,1,2.7,3.1,8.43,8.43,0,0,1,1,3.2.91.91,0,0,1-.3.7,1,1,0,0,1-.8.3h-6.6a2,2,0,0,1-.9-.2,1.34,1.34,0,0,1-.7-.6,3.2,3.2,0,0,0-1.6-1.9,6.18,6.18,0,0,0-3.3-.8,6.57,6.57,0,0,0-3.4.8,2.56,2.56,0,0,0-1.2,2.3,2.19,2.19,0,0,0,.7,1.7,5.53,5.53,0,0,0,2.2,1.3,32.59,32.59,0,0,0,4.3,1.1,35.19,35.19,0,0,1,7.2,2.1,9.66,9.66,0,0,1,4.1,3.2,8.66,8.66,0,0,1,1.3,5,9,9,0,0,1-1.9,5.8,12.62,12.62,0,0,1-5.2,3.7A17.82,17.82,0,0,1,290.5,104.9Z"/><path class="cls-1" d="M322.2,104.9a21.56,21.56,0,0,1-8.2-1.4,11.18,11.18,0,0,1-4.9-3.7,8.89,8.89,0,0,1-1.8-4.8.91.91,0,0,1,.3-.7,1.14,1.14,0,0,1,.8-.3h6.2a3.09,3.09,0,0,1,1.1.2c.2.2.5.4.7.6a4.86,4.86,0,0,0,1.1,1.4,5,5,0,0,0,1.9,1.1,8.12,8.12,0,0,0,2.9.4,8.35,8.35,0,0,0,4.3-.9,2.71,2.71,0,0,0,1.5-2.4,2.2,2.2,0,0,0-.8-1.8,7.19,7.19,0,0,0-2.5-1.3,39.1,39.1,0,0,0-4.7-1.2,30.23,30.23,0,0,1-6.4-2,8.83,8.83,0,0,1-4-3.3,9.25,9.25,0,0,1-1.4-5.1,9.35,9.35,0,0,1,1.7-5.4,10.71,10.71,0,0,1,4.8-3.7,17.48,17.48,0,0,1,7.2-1.3,18,18,0,0,1,6,.9,14.27,14.27,0,0,1,4.4,2.4,10.93,10.93,0,0,1,2.7,3.1,8.43,8.43,0,0,1,1,3.2.91.91,0,0,1-.3.7,1,1,0,0,1-.8.3h-6.5a2,2,0,0,1-.9-.2,1.34,1.34,0,0,1-.7-.6,3.2,3.2,0,0,0-1.6-1.9,6.18,6.18,0,0,0-3.3-.8,6.57,6.57,0,0,0-3.4.8,2.56,2.56,0,0,0-1.2,2.3,2.19,2.19,0,0,0,.7,1.7,5.53,5.53,0,0,0,2.2,1.3,32.59,32.59,0,0,0,4.3,1.1,35.19,35.19,0,0,1,7.2,2.1,9.66,9.66,0,0,1,4.1,3.2,8.66,8.66,0,0,1,1.3,5,9,9,0,0,1-1.9,5.8,12.62,12.62,0,0,1-5.2,3.7A18.87,18.87,0,0,1,322.2,104.9Z"/><path class="cls-1" d="M341.2,104.4a1,1,0,0,1-.9-.4,1.22,1.22,0,0,1-.3-.9v-32a1.06,1.06,0,0,1,1.2-1.2h6.6a1.22,1.22,0,0,1,.9.3,1.27,1.27,0,0,1,.4.9v32a1.22,1.22,0,0,1-.4.9,1.49,1.49,0,0,1-.9.4Z"/><path class="cls-1" d="M368,104.9a19.53,19.53,0,0,1-7.9-1.5,11.44,11.44,0,0,1-5.2-4.5,16.56,16.56,0,0,1-2.1-7.5V82.8a14.69,14.69,0,0,1,2.1-7.5,12.54,12.54,0,0,1,5.3-4.6,21,21,0,0,1,15.6,0,11.82,11.82,0,0,1,5.3,4.6,14.4,14.4,0,0,1,2.1,7.5c.1,1.4.1,2.8.1,4.3s0,2.8-.1,4.3a15.39,15.39,0,0,1-2,7.5,12,12,0,0,1-5.2,4.5A20,20,0,0,1,368,104.9Zm0-7.1a5.89,5.89,0,0,0,4.3-1.6c1.1-1,1.7-2.7,1.7-5,.1-1.4.1-2.8.1-4.1s0-2.6-.1-4a10.11,10.11,0,0,0-.9-3.8,4.29,4.29,0,0,0-2.1-2.1,6.17,6.17,0,0,0-3.1-.7,6,6,0,0,0-3,.7,5.3,5.3,0,0,0-2.1,2.1,9.65,9.65,0,0,0-.9,3.8v8.1c.1,2.3.7,4,1.8,5A6,6,0,0,0,368,97.8Z"/><path class="cls-1" d="M387.3,104.4a1,1,0,0,1-.9-.4,1.22,1.22,0,0,1-.3-.9v-32a1.06,1.06,0,0,1,1.2-1.2h5.2c.6,0,1,.1,1.2.4a2.65,2.65,0,0,1,.5.6l12,18.9V71.2a1.06,1.06,0,0,1,1.2-1.2h5.9a1.06,1.06,0,0,1,1.2,1.2v31.9a1.22,1.22,0,0,1-.3.9,1.27,1.27,0,0,1-.9.4H408a1.59,1.59,0,0,1-1.2-.4,2.25,2.25,0,0,0-.5-.5l-12-18.2v17.9a1.61,1.61,0,0,1-.3.9,1.27,1.27,0,0,1-.9.4h-5.8Z"/><path class="cls-1" d="M431.3,104.9a21.56,21.56,0,0,1-8.2-1.4,11.18,11.18,0,0,1-4.9-3.7,8.89,8.89,0,0,1-1.8-4.8.91.91,0,0,1,.3-.7,1.14,1.14,0,0,1,.8-.3h6.2a3.09,3.09,0,0,1,1.1.2c.2.2.5.4.7.6a4.86,4.86,0,0,0,1.1,1.4,5,5,0,0,0,1.9,1.1,8.12,8.12,0,0,0,2.9.4,8.35,8.35,0,0,0,4.3-.9,2.71,2.71,0,0,0,1.5-2.4,2.2,2.2,0,0,0-.8-1.8,7.19,7.19,0,0,0-2.5-1.3,39.1,39.1,0,0,0-4.7-1.2,30.23,30.23,0,0,1-6.4-2,8.83,8.83,0,0,1-4-3.3,9.25,9.25,0,0,1-1.4-5.1,9.35,9.35,0,0,1,1.7-5.4,10.71,10.71,0,0,1,4.8-3.7,17.48,17.48,0,0,1,7.2-1.3,18,18,0,0,1,6,.9,14.27,14.27,0,0,1,4.4,2.4,10.93,10.93,0,0,1,2.7,3.1,8.43,8.43,0,0,1,1,3.2.91.91,0,0,1-.3.7,1,1,0,0,1-.8.3h-6.5a2,2,0,0,1-.9-.2,1.34,1.34,0,0,1-.7-.6,3.2,3.2,0,0,0-1.6-1.9,6.18,6.18,0,0,0-3.3-.8,6.57,6.57,0,0,0-3.4.8,2.56,2.56,0,0,0-1.2,2.3,2.19,2.19,0,0,0,.7,1.7,5.53,5.53,0,0,0,2.2,1.3,32.59,32.59,0,0,0,4.3,1.1,35.19,35.19,0,0,1,7.2,2.1,9.66,9.66,0,0,1,4.1,3.2,8.66,8.66,0,0,1,1.3,5,9,9,0,0,1-1.9,5.8,12.62,12.62,0,0,1-5.2,3.7A18.57,18.57,0,0,1,431.3,104.9Z"/></svg>