<svg viewBox="0 0 24 24" xmlns="http://www.w3.org/2000/svg"><g transform="matrix(2.4,0,0,2.4,0,0)"><path d="M9.024,6.379l.692-.691a.977.977,0,0,0,0-1.377L8.65,3.247a.5.5,0,0,0-.438-.139.5.5,0,0,0-.367.278.914.914,0,0,1-.179.254.946.946,0,0,1-1.306,0,.924.924,0,0,1,.253-1.485.5.5,0,0,0,.14-.806L5.689.286a.975.975,0,0,0-1.378,0L3.62.975A1.967,1.967,0,0,0,3.341.621a1.97,1.97,0,0,0-2.72,0,1.925,1.925,0,0,0,0,2.72,1.9,1.9,0,0,0,.355.279l-.692.692a.977.977,0,0,0,0,1.377L1.35,6.753a.5.5,0,0,0,.8-.139.9.9,0,0,1,.179-.254.923.923,0,1,1,1.3,1.306.913.913,0,0,1-.252.179.5.5,0,0,0-.14.805L4.311,9.715a.978.978,0,0,0,1.378,0l.691-.691a1.923,1.923,0,1,0,3-2.365A1.9,1.9,0,0,0,9.024,6.379Z" fill="#F1782B" stroke="none" stroke-linecap="round" stroke-linejoin="round" stroke-width="0"></path></g></svg>