<svg xmlns="http://www.w3.org/2000/svg" viewBox="0 0 24 24">

  <g transform="matrix(1,0,0,1,0,0)">
    <g>
      <path d="M9.5,10a.5.5,0,0,1-.5.5H4a.5.5,0,0,1-.5-.5V5A.5.5,0,0,1,4,4.5H9a.5.5,0,0,1,.5.5Z" style="fill: none;stroke: #000000;stroke-linecap: round;stroke-linejoin: round"></path>
      <line x1="11.5" y1="4.5" x2="14.5" y2="4.5" style="fill: none;stroke: #000000;stroke-linecap: round;stroke-linejoin: round"></line>
      <line x1="11.5" y1="7.5" x2="14.5" y2="7.5" style="fill: none;stroke: #000000;stroke-linecap: round;stroke-linejoin: round"></line>
      <line x1="11.5" y1="10.5" x2="14.5" y2="10.5" style="fill: none;stroke: #000000;stroke-linecap: round;stroke-linejoin: round"></line>
      <line x1="3.5" y1="13.5" x2="14.5" y2="13.5" style="fill: none;stroke: #000000;stroke-linecap: round;stroke-linejoin: round"></line>
      <line x1="3.5" y1="16.5" x2="14.5" y2="16.5" style="fill: none;stroke: #000000;stroke-linecap: round;stroke-linejoin: round"></line>
      <line x1="3.5" y1="19.5" x2="14.5" y2="19.5" style="fill: none;stroke: #000000;stroke-linecap: round;stroke-linejoin: round"></line>
      <path d="M20.5,23.5H3.5a3,3,0,0,1-3-3V1.5a1,1,0,0,1,1-1h15a1,1,0,0,1,1,1v19a3,3,0,0,0,6,0V3.5" style="fill: none;stroke: #000000;stroke-linecap: round;stroke-linejoin: round"></path>
      <line x1="20.5" y1="3.5" x2="20.5" y2="21" style="fill: none;stroke: #000000;stroke-linecap: round;stroke-linejoin: round"></line>
    </g>
  </g>
</svg>