<svg viewBox="0 0 16 16" xmlns="http://www.w3.org/2000/svg"><g transform="matrix(0.6666666666666666,0,0,0.6666666666666666,0,0)"><path d="M15.5 14.5L15.5 8.5 8.5 8.5 8.5 14.5 5.5 14.5 12 21 18.469 14.5 15.5 14.5z" fill="none" stroke="#000000" stroke-linecap="round" stroke-linejoin="round"></path><path d="M22.629,4.572A6.22,6.22,0,0,1,23,6.5v16a1,1,0,0,1-1,1H2a1,1,0,0,1-1-1V6.5a6.22,6.22,0,0,1,.371-1.928L2.629,1.428A1.6,1.6,0,0,1,4,.5H20a1.6,1.6,0,0,1,1.371.928Z" fill="none" stroke="#000000" stroke-linecap="round" stroke-linejoin="round"></path><path d="M12 6L12 0.5" fill="none" stroke="#000000" stroke-linecap="round" stroke-linejoin="round"></path><path d="M1.034 6L22.966 6" fill="none" stroke="#000000" stroke-linecap="round" stroke-linejoin="round"></path></g></svg>