<svg viewBox="0 0 24 24" xmlns="http://www.w3.org/2000/svg"><g transform="matrix(1,0,0,1,0,0)"><path d="M8.25 6L8.25 3" fill="none" stroke="#000000" stroke-linecap="round" stroke-linejoin="round" stroke-width="1.5"></path><path d="M3.75 10.5L0.75 10.5" fill="none" stroke="#000000" stroke-linecap="round" stroke-linejoin="round" stroke-width="1.5"></path><path d="M11.432 7.318L13.553 5.197" fill="none" stroke="#000000" stroke-linecap="round" stroke-linejoin="round" stroke-width="1.5"></path><path d="M5.068 7.318L2.947 5.197" fill="none" stroke="#000000" stroke-linecap="round" stroke-linejoin="round" stroke-width="1.5"></path><path d="M4.5,12.984a4.5,4.5,0,1,1,7.65-4.736" fill="none" stroke="#000000" stroke-linecap="round" stroke-linejoin="round" stroke-width="1.5"></path><path d="M11.25,15a5.993,5.993,0,0,0,.047.75A5.993,5.993,0,0,1,11.25,15a5.848,5.848,0,0,1,.113-1.122" fill="none" stroke="#000000" stroke-linecap="round" stroke-linejoin="round" stroke-width="1.5"></path><path d="M17.25,21a6,6,0,1,0-5.887-7.122A3.745,3.745,0,1,0,9.75,21Z" fill="none" stroke="#000000" stroke-linecap="round" stroke-linejoin="round" stroke-width="1.5"></path></g></svg>